<svg width="50" height="50" viewBox="0 0 50 50" fill="none" xmlns="http://www.w3.org/2000/svg">
<path d="M25 6.25C14.6632 6.25 6.25 14.6632 6.25 25C6.25 35.3368 14.6632 43.75 25 43.75C35.3368 43.75 43.75 35.3368 43.75 25C43.75 14.6632 35.3368 6.25 25 6.25ZM25 9.375C33.648 9.375 40.625 16.352 40.625 25C40.625 32.8553 34.862 39.3145 27.3254 40.4358V29.5563H31.7749L32.4738 25.0366H27.3254V22.5677C27.3254 20.6912 27.942 19.0247 29.6967 19.0247H32.5165V15.0818C32.0212 15.0146 30.9729 14.8682 28.9917 14.8682C24.8542 14.8682 22.4304 17.0525 22.4304 22.0306V25.0366H18.1763V29.5563H22.4304V40.3961C15.0138 39.1729 9.375 32.7704 9.375 25C9.375 16.352 16.352 9.375 25 9.375Z" fill="white"/>
</svg>
